<?xml version="1.0" encoding="UTF-8" standalone="no"?>
<!-- Created with Inkscape (http://www.inkscape.org/) -->
<svg xmlns:dc="http://purl.org/dc/elements/1.1/" xmlns:cc="http://web.resource.org/cc/" xmlns:rdf="http://www.w3.org/1999/02/22-rdf-syntax-ns#" xmlns:svg="http://www.w3.org/2000/svg" xmlns="http://www.w3.org/2000/svg" xmlns:sodipodi="http://sodipodi.sourceforge.net/DTD/sodipodi-0.dtd" xmlns:inkscape="http://www.inkscape.org/namespaces/inkscape" version="1.0" width="800" height="400" id="svg2" sodipodi:version="0.32" inkscape:version="0.45.1" sodipodi:docname="statespacemodel.svg" inkscape:output_extension="org.inkscape.output.svg.inkscape" sodipodi:docbase="D:\Documents\Wiki" inkscape:export-filename="D:\Documents\Wiki\statespacemodel_normales.png" inkscape:export-xdpi="600" inkscape:export-ydpi="600">
  <metadata id="metadata69">
    <rdf:RDF>
      <cc:Work rdf:about="">
        <dc:format>image/svg+xml</dc:format>
        <dc:type rdf:resource="http://purl.org/dc/dcmitype/StillImage"/>
      </cc:Work>
    </rdf:RDF>
  </metadata>
  <sodipodi:namedview inkscape:window-height="815" inkscape:window-width="1152" inkscape:pageshadow="2" inkscape:pageopacity="0.0" guidetolerance="10.0" gridtolerance="10.0" objecttolerance="10.0" borderopacity="1.0" bordercolor="#666666" pagecolor="#ffffff" id="base" width="800px" height="400px" showborder="true" inkscape:showpageshadow="false" inkscape:zoom="1.1126315" inkscape:cx="442.41036" inkscape:cy="212.50151" inkscape:window-x="-4" inkscape:window-y="-4" inkscape:current-layer="svg2"/>
  <defs id="defs4">
    <marker inkscape:stockid="Arrow2Lend" orient="auto" refY="0.0" refX="0.0" id="Arrow2Lend" style="overflow: visible;">
      <path id="path4928" style="fill-rule: evenodd; stroke-width: 0.625; stroke-linejoin: round;" d="M 8.7185878,4.0337352 L -2.2072895,0.016013256 L 8.7185884,-4.0017078 C 6.9730900,-1.6296469 6.9831476,1.6157441 8.7185878,4.0337352 z " transform="scale(1.1, 1.1) rotate(180) translate(1)"/>
    </marker>
    <marker refX="0" refY="0" orient="auto" style="overflow: visible;" id="Arrow1Mend">
      <path d="M 0,0 L 5,-5 L -12.5,0 L 5,5 L 0,0 z " transform="matrix(-0.4, 0, 0, -0.4, -4, 0)" style="fill-rule: evenodd; stroke: rgb(0, 0, 0); stroke-width: 1pt; marker-start: none;" id="path6109"/>
    </marker>
    <marker refX="0" refY="0" orient="auto" style="overflow: visible;" id="Arrow2Mend">
      <path d="M 8.7185878,4.0337352 L -2.2072895,0.016013256 L 8.7185884,-4.0017078 C 6.97309,-1.6296469 6.9831476,1.6157441 8.7185878,4.0337352 z " transform="scale(-0.6, -0.6)" style="font-size: 12px; fill-rule: evenodd; stroke-width: 0.625; stroke-linejoin: round;" id="path6127"/>
    </marker>
    <marker refX="0" refY="0" orient="auto" style="overflow: visible;" id="Arrow1Lend">
      <path d="M 0,0 L 5,-5 L -12.5,0 L 5,5 L 0,0 z " transform="matrix(-0.8, 0, 0, -0.8, -10, 0)" style="fill-rule: evenodd; stroke: rgb(0, 0, 0); stroke-width: 1pt; marker-start: none;" id="path6103"/>
    </marker>
  </defs>
  <g id="g3150" transform="matrix(2.33726, 0, 0, 2.33726, -401.636, -590.586)">
    <text sodipodi:linespacing="125%" xml:space="preserve" id="text3134" style="font-size: 12px; font-style: normal; font-weight: normal; text-align: start; line-height: 125%; text-anchor: start; fill: rgb(0, 0, 0); fill-opacity: 1; stroke: none; stroke-width: 1px; stroke-linecap: butt; stroke-linejoin: miter; stroke-opacity: 1; font-family: Bitstream Vera Sans;" y="340.934" x="335.714"><tspan id="tspan3144" y="340.934" x="335.714">1</tspan><tspan id="tspan3146" y="355.934" x="335.714">s</tspan></text>
    <path id="path3148" style="fill: none; fill-rule: evenodd; stroke: rgb(0, 0, 0); stroke-width: 1px; stroke-linecap: butt; stroke-linejoin: miter; stroke-opacity: 1;" d="M 333.92857,344.50504 L 343.92857,344.50504"/>
  </g>
  <text xml:space="preserve" id="text3158" style="font-size: 42.0706px; font-style: normal; font-weight: normal; fill: rgb(0, 0, 0); fill-opacity: 1; stroke: none; stroke-width: 1px; stroke-linecap: butt; stroke-linejoin: miter; stroke-opacity: 1; font-family: Bitstream Vera Sans;" y="228.935" x="557.426"><tspan id="tspan3160" y="228.935" x="557.426">C</tspan></text>
  <rect id="rect3162" style="fill: none; fill-opacity: 1; fill-rule: nonzero; stroke: rgb(0, 0, 0); stroke-width: 2.23445; stroke-linecap: butt; stroke-linejoin: round; stroke-miterlimit: 4; stroke-dasharray: none; stroke-opacity: 1;" y="177.62259" x="134.87349" height="72.51059" width="90.601135"/>
  <text xml:space="preserve" id="text3164" style="font-size: 42.0706px; font-style: normal; font-weight: normal; fill: rgb(0, 0, 0); fill-opacity: 1; stroke: none; stroke-width: 1px; stroke-linecap: butt; stroke-linejoin: miter; stroke-opacity: 1; font-family: Bitstream Vera Sans;" y="228.935" x="164.767"><tspan id="tspan3166" y="228.935" x="164.767">B</tspan></text>
  <text xml:space="preserve" id="text3170" style="font-size: 42.0706px; font-style: normal; font-weight: normal; fill: rgb(0, 0, 0); fill-opacity: 1; stroke: none; stroke-width: 1px; stroke-linecap: butt; stroke-linejoin: miter; stroke-opacity: 1; font-family: Bitstream Vera Sans;" y="350.473" x="375.12"><tspan id="tspan3172" y="350.473" x="375.12">A</tspan></text>
  <text xml:space="preserve" id="text3176" style="font-size: 42.0706px; font-style: normal; font-weight: normal; fill: rgb(0, 0, 0); fill-opacity: 1; stroke: none; stroke-width: 1px; stroke-linecap: butt; stroke-linejoin: miter; stroke-opacity: 1; font-family: Bitstream Vera Sans;" y="65.3274" x="557.139"><tspan id="tspan3178" y="65.3274" x="557.139">D</tspan></text>
  <path id="path3180" style="fill: none; fill-opacity: 1; fill-rule: nonzero; stroke: rgb(0, 0, 0); stroke-width: 2.33726; stroke-linecap: butt; stroke-linejoin: round; stroke-miterlimit: 4; stroke-dasharray: none; stroke-opacity: 1;" d="M 285.08436,213.87789 C 285.08821,217.57076 283.12029,220.98476 279.92281,222.83232 C 276.72535,224.67985 272.78475,224.67985 269.58729,222.83232 C 266.38981,220.98476 264.42188,217.57076 264.42574,213.87789 C 264.42188,210.18502 266.38981,206.77102 269.58729,204.92346 C 272.78475,203.07593 276.72535,203.07593 279.92281,204.92346 C 283.12029,206.77102 285.08821,210.18502 285.08436,213.87789 L 285.08436,213.87789 z "/>
  <path id="path4151" style="fill: none; fill-opacity: 1; fill-rule: nonzero; stroke: rgb(0, 0, 0); stroke-width: 2.33726; stroke-linecap: butt; stroke-linejoin: round; stroke-miterlimit: 4; stroke-dasharray: none; stroke-opacity: 1;" d="M 707.7563,213.87789 C 707.76015,217.57076 705.79223,220.98476 702.59474,222.83232 C 699.39728,224.67985 695.45669,224.67985 692.25923,222.83232 C 689.06175,220.98476 687.09382,217.57076 687.09768,213.87789 C 687.09382,210.18502 689.06175,206.77102 692.25923,204.92346 C 695.45669,203.07593 699.39728,203.07593 702.59474,204.92346 C 705.79223,206.77102 707.76015,210.18502 707.7563,213.87789 L 707.7563,213.87789 z "/>
  <g id="g5121">
    <path style="fill: rgb(0, 0, 0); fill-opacity: 1; fill-rule: evenodd; stroke: none; stroke-width: 2.09751; stroke-linecap: butt; stroke-linejoin: miter; stroke-miterlimit: 4; stroke-dasharray: none; stroke-opacity: 1;" d="M 224.90625,212.84375 L 224.90625,214.9375 L 261.84375,214.9375 L 261.84375,212.84375 L 224.90625,212.84375 z " id="path4157"/>
    <path d="M 239.43369,204.57154 L 264.64258,213.84148 L 239.43369,223.11143 C 243.46102,217.63846 243.43781,210.15048 239.43369,204.57154 z " style="font-size: 12px; fill-rule: evenodd; stroke-width: 0.625; stroke-linejoin: round;" id="path5127"/>
  </g>
  <g id="g5137">
    <path style="fill: rgb(0, 0, 0); fill-opacity: 1; fill-rule: evenodd; stroke: none; stroke-width: 2.33726; stroke-linecap: butt; stroke-linejoin: miter; stroke-miterlimit: 4; stroke-dasharray: none; stroke-opacity: 1;" d="M 284.96875,212.71875 L 284.96875,215.03125 L 341.21875,215.03125 L 341.21875,212.71875 L 284.96875,212.71875 z " id="path6297"/>
    <path d="M 316.2338,203.50723 L 344.32404,213.83672 L 316.2338,224.16621 C 320.72145,218.06768 320.69559,209.72384 316.2338,203.50723 z " style="font-size: 12px; fill-rule: evenodd; stroke-width: 0.625; stroke-linejoin: round;" id="path5143"/>
  </g>
  <g id="g5129">
    <path style="fill: rgb(0, 0, 0); fill-opacity: 1; fill-rule: evenodd; stroke: none; stroke-width: 2.33726px; stroke-linecap: butt; stroke-linejoin: miter; stroke-opacity: 1;" d="M 273.9375,226.90625 L 273.9375,338.8125 L 273.9375,339.96875 L 275.09375,339.96875 L 345.25,339.96875 L 345.25,337.65625 L 276.25,337.65625 L 276.25,226.90625 L 273.9375,226.90625 z " id="path6299"/>
    <path d="M 264.72248,251.89643 L 275.05197,223.80619 L 285.38146,251.89643 C 279.28293,247.40879 270.93909,247.43464 264.72248,251.89643 z " style="font-size: 12px; fill-rule: evenodd; stroke-width: 0.625; stroke-linejoin: round;" id="path5135"/>
  </g>
  <g id="g5161">
    <path style="fill: rgb(0, 0, 0); fill-opacity: 1; fill-rule: evenodd; stroke: none; stroke-width: 2.33726; stroke-linecap: butt; stroke-linejoin: miter; stroke-miterlimit: 4; stroke-dasharray: none; stroke-opacity: 1;" d="M 435.09375,212.71875 L 435.09375,215.03125 L 524.25,215.03125 L 524.25,212.71875 L 435.09375,212.71875 z " id="path6303"/>
    <path d="M 499.26917,203.50723 L 527.35941,213.83672 L 499.26917,224.16621 C 503.75681,218.06768 503.73096,209.72384 499.26917,203.50723 z " style="font-size: 12px; fill-rule: evenodd; stroke-width: 0.625; stroke-linejoin: round;" id="path5167"/>
  </g>
  <g id="g5169">
    <path style="fill: rgb(0, 0, 0); fill-opacity: 1; fill-rule: evenodd; stroke: none; stroke-width: 2.33726; stroke-linecap: butt; stroke-linejoin: miter; stroke-miterlimit: 4; stroke-dasharray: none; stroke-opacity: 1;" d="M 617.40625,212.71875 L 617.40625,215.03125 L 683.09375,215.03125 L 683.09375,212.71875 L 617.40625,212.71875 z " id="path6305"/>
    <path d="M 658.10668,203.50723 L 686.19692,213.83672 L 658.10668,224.16621 C 662.59432,218.06768 662.56847,209.72384 658.10668,203.50723 z " style="font-size: 12px; fill-rule: evenodd; stroke-width: 0.625; stroke-linejoin: round;" id="path5175"/>
  </g>
  <g id="g5153">
    <path style="fill: rgb(0, 0, 0); fill-opacity: 1; fill-rule: evenodd; stroke: none; stroke-width: 2.33726px; stroke-linecap: butt; stroke-linejoin: miter; stroke-opacity: 1;" d="M 483.0625,213.65625 L 483.0625,334.59375 L 436.9375,334.59375 L 436.9375,336.9375 L 484.25,336.9375 L 485.40625,336.9375 L 485.40625,335.78125 L 485.40625,213.65625 L 483.0625,213.65625 z " id="path6307"/>
    <path d="M 461.91572,346.14164 L 433.82548,335.81215 L 461.91572,325.48266 C 457.42807,331.58119 457.45393,339.92503 461.91572,346.14164 z " style="font-size: 12px; fill-rule: evenodd; stroke-width: 0.625; stroke-linejoin: round;" id="path5159"/>
  </g>
  <g id="g5185">
    <path style="fill: rgb(0, 0, 0); fill-opacity: 1; fill-rule: evenodd; stroke: none; stroke-width: 2.33726px; stroke-linecap: butt; stroke-linejoin: miter; stroke-opacity: 1;" d="M 85.90625,50.5 L 85.90625,51.65625 L 85.90625,214.4375 L 88.25,214.4375 L 88.25,52.8125 L 523.71875,52.8125 L 523.71875,50.5 L 87.0625,50.5 L 85.90625,50.5 z " id="path6309"/>
    <path d="M 498.72653,41.286196 L 526.81677,51.615688 L 498.72653,61.945178 C 503.21418,55.846651 503.18832,47.502808 498.72653,41.286196 z " style="font-size: 12px; fill-rule: evenodd; stroke-width: 0.625; stroke-linejoin: round;" id="path5191"/>
  </g>
  <g id="g5111">
    <path style="fill: rgb(0, 0, 0); fill-opacity: 1; fill-rule: evenodd; stroke: none; stroke-width: 2.33726; stroke-linecap: butt; stroke-linejoin: miter; stroke-miterlimit: 4; stroke-dasharray: none; stroke-opacity: 1;" d="M 16.75,212.71875 L 16.75,215.03125 L 130.34375,215.03125 L 130.34375,212.71875 L 16.75,212.71875 z " id="path6311"/>
    <path d="M 105.36988,203.50723 L 133.46012,213.83672 L 105.36988,224.16621 C 109.85753,218.06768 109.83167,209.72384 105.36988,203.50723 z " style="font-size: 12px; fill-rule: evenodd; stroke-width: 0.625; stroke-linejoin: round;" id="path5117"/>
  </g>
  <g id="g5177">
    <path style="fill: rgb(0, 0, 0); fill-opacity: 1; fill-rule: evenodd; stroke: none; stroke-width: 2.33726px; stroke-linecap: butt; stroke-linejoin: miter; stroke-opacity: 1;" d="M 618.53125,46.625 L 618.53125,48.96875 L 694.625,48.96875 L 694.625,200.09375 L 696.96875,200.09375 L 696.96875,47.8125 L 696.96875,46.625 L 695.78125,46.625 L 618.53125,46.625 z " id="path6313"/>
    <path d="M 706.16113,175.09661 L 695.83164,203.18685 L 685.50215,175.09661 C 691.60068,179.58425 699.94452,179.5584 706.16113,175.09661 z " style="font-size: 12px; fill-rule: evenodd; stroke-width: 0.625; stroke-linejoin: round;" id="path5183"/>
  </g>
  <path id="path6315" style="fill: rgb(0, 0, 0); fill-opacity: 1; fill-rule: nonzero; stroke: rgb(0, 0, 0); stroke-width: 2.33726; stroke-linecap: butt; stroke-linejoin: round; stroke-miterlimit: 4; stroke-dasharray: none; stroke-opacity: 1;" d="M 90.592863,213.62317 C 90.592863,215.47875 89.088625,216.98298 87.233056,216.98298 C 85.377486,216.98298 83.873249,215.47875 83.873249,213.62317 C 83.873249,211.7676 85.377486,210.26337 87.233056,210.26337 C 89.088625,210.26337 90.592863,211.7676 90.592863,213.62317 z "/>
  <path id="path6317" style="fill: rgb(0, 0, 0); fill-opacity: 1; fill-rule: nonzero; stroke: rgb(0, 0, 0); stroke-width: 2.33726; stroke-linecap: butt; stroke-linejoin: round; stroke-miterlimit: 4; stroke-dasharray: none; stroke-opacity: 1;" d="M 487.63799,213.62317 C 487.63799,215.47875 486.13375,216.98298 484.27818,216.98298 C 482.42261,216.98298 480.91838,215.47875 480.91838,213.62317 C 480.91838,211.7676 482.42261,210.26337 484.27818,210.26337 C 486.13375,210.26337 487.63799,211.7676 487.63799,213.62317 z "/>
  <g id="g5193">
    <path style="fill: rgb(0, 0, 0); fill-opacity: 1; fill-rule: evenodd; stroke: none; stroke-width: 2.33726; stroke-linecap: butt; stroke-linejoin: miter; stroke-miterlimit: 4; stroke-dasharray: none; stroke-opacity: 1;" d="M 708.84375,212.71875 L 708.84375,215.03125 L 784.8125,215.03125 L 784.8125,212.71875 L 708.84375,212.71875 z " id="path6319"/>
    <path d="M 759.82745,203.50723 L 787.91769,213.83672 L 759.82745,224.16621 C 764.31509,218.06768 764.28924,209.72384 759.82745,203.50723 z " style="font-size: 12px; fill-rule: evenodd; stroke-width: 0.625; stroke-linejoin: round;" id="path5199"/>
  </g>
  <g id="g5145">
    <path style="fill: rgb(0, 0, 0); fill-opacity: 1; fill-rule: evenodd; stroke: none; stroke-width: 2.234; stroke-linecap: butt; stroke-linejoin: miter; stroke-miterlimit: 4; stroke-dasharray: none; stroke-opacity: 1;" d="M 390.71875,125.84375 L 390.71875,171.34375 L 392.9375,171.34375 L 392.9375,125.84375 L 390.71875,125.84375 z " id="path6321"/>
    <path d="M 401.74636,147.46931 L 391.87321,174.31856 L 382.00006,147.46931 C 387.82917,151.7587 395.80439,151.73398 401.74636,147.46931 z " style="font-size: 12px; fill-rule: evenodd; stroke-width: 0.625; stroke-linejoin: round;" id="path5151"/>
  </g>
  <text xml:space="preserve" id="text6323" style="font-size: 37.508px; font-style: normal; font-weight: normal; fill: rgb(0, 0, 0); fill-opacity: 1; stroke: none; stroke-width: 1px; stroke-linecap: butt; stroke-linejoin: miter; stroke-opacity: 1; font-family: Bitstream Vera Sans;" y="131.101" x="400.112"><tspan id="tspan6325" y="131.101" x="400.112">x<tspan id="tspan6363" style="font-size: 31.2567px;">(0)</tspan></tspan></text>
  <text xml:space="preserve" id="text6365" style="font-size: 43.2561px; font-style: normal; font-weight: normal; fill: rgb(0, 0, 0); fill-opacity: 1; stroke: none; stroke-width: 1px; stroke-linecap: butt; stroke-linejoin: miter; stroke-opacity: 1; font-family: Bitstream Vera Sans;" transform="scale(0.972391, 1.02839)" y="188.281" x="15.1441"><tspan id="tspan6367" y="188.281" x="15.1441"><tspan id="tspan6369" style="font-size: 36.0467px;">u(t)</tspan></tspan></text>
  <text xml:space="preserve" id="text6371" style="font-size: 36.4645px; font-style: normal; font-weight: normal; fill: rgb(0, 0, 0); fill-opacity: 1; stroke: none; stroke-width: 1px; stroke-linecap: butt; stroke-linejoin: miter; stroke-opacity: 1; font-family: Bitstream Vera Sans;" y="193.983" x="453.231"><tspan id="tspan6373" y="193.983" x="453.231">x<tspan id="tspan6375" style="font-size: 30.3871px;">(t)</tspan></tspan></text>
  <g id="g5105" transform="translate(-8, 4.04129e-05)">
    <text x="291.696" y="193.819" style="font-size: 37.3998px; font-style: normal; font-weight: normal; fill: rgb(0, 0, 0); fill-opacity: 1; stroke: none; stroke-width: 1px; stroke-linecap: butt; stroke-linejoin: miter; stroke-opacity: 1; font-family: Bitstream Vera Sans;" id="text6377" xml:space="preserve"><tspan x="291.696" y="193.819" id="tspan6379">x<tspan style="font-size: 31.1665px;" id="tspan6381">(t)</tspan></tspan></text>
    <path d="M 301.89793,168.70056 C 301.89884,169.11622 301.72619,169.50082 301.44523,169.709 C 301.16429,169.91715 300.81791,169.91715 300.53694,169.709 C 300.25601,169.50082 300.08335,169.11622 300.08426,168.70056 C 300.08335,168.28491 300.25601,167.90031 300.53694,167.69213 C 300.81791,167.48398 301.16429,167.48398 301.44523,167.69213 C 301.72619,167.90031 301.89884,168.28491 301.89793,168.70056 z " style="fill: rgb(0, 0, 0); fill-opacity: 1; fill-rule: nonzero; stroke: rgb(0, 0, 0); stroke-width: 2.33726; stroke-linecap: butt; stroke-linejoin: round; stroke-miterlimit: 4; stroke-dasharray: none; stroke-opacity: 1;" id="path6383"/>
  </g>
  <text xml:space="preserve" id="text7354" style="font-size: 42.1503px; font-style: normal; font-weight: normal; fill: rgb(0, 0, 0); fill-opacity: 1; stroke: none; stroke-width: 1px; stroke-linecap: butt; stroke-linejoin: miter; stroke-opacity: 1; font-family: Bitstream Vera Sans;" y="192.986" x="728.156"><tspan id="tspan7356" y="192.986" x="728.156"><tspan id="tspan7358" style="font-size: 35.1253px;">y(t)</tspan></tspan></text>
  <text xml:space="preserve" id="text7360" style="font-size: 28.0471px; font-style: normal; font-weight: normal; fill: rgb(0, 0, 0); fill-opacity: 1; stroke: none; stroke-width: 1px; stroke-linecap: butt; stroke-linejoin: miter; stroke-opacity: 1; font-family: Bitstream Vera Sans;" y="207.967" x="247.197"><tspan id="tspan7362" y="207.967" x="247.197">+</tspan></text>
  <text xml:space="preserve" id="text7364" style="font-size: 28.0471px; font-style: normal; font-weight: normal; fill: rgb(0, 0, 0); fill-opacity: 1; stroke: none; stroke-width: 1px; stroke-linecap: butt; stroke-linejoin: miter; stroke-opacity: 1; font-family: Bitstream Vera Sans;" y="242.674" x="292.251"><tspan id="tspan7366" y="242.674" x="292.251">+</tspan></text>
  <text xml:space="preserve" id="text7368" style="font-size: 28.0471px; font-style: normal; font-weight: normal; fill: rgb(0, 0, 0); fill-opacity: 1; stroke: none; stroke-width: 1px; stroke-linecap: butt; stroke-linejoin: miter; stroke-opacity: 1; font-family: Bitstream Vera Sans;" y="236.889" x="667.793"><tspan id="tspan7370" y="236.889" x="667.793">+</tspan></text>
  <text xml:space="preserve" id="text7372" style="font-size: 28.0471px; font-style: normal; font-weight: normal; fill: rgb(0, 0, 0); fill-opacity: 1; stroke: none; stroke-width: 1px; stroke-linecap: butt; stroke-linejoin: miter; stroke-opacity: 1; font-family: Bitstream Vera Sans;" y="203.009" x="702.499"><tspan id="tspan7374" y="203.009" x="702.499">+</tspan></text>
  <rect id="rect7376" style="fill: none; fill-opacity: 1; fill-rule: nonzero; stroke: rgb(0, 0, 0); stroke-width: 2.23445; stroke-linecap: butt; stroke-linejoin: round; stroke-miterlimit: 4; stroke-dasharray: none; stroke-opacity: 1;" y="177.62259" x="345.22662" height="72.51059" width="90.601135"/>
  <rect id="rect7378" style="fill: none; fill-opacity: 1; fill-rule: nonzero; stroke: rgb(0, 0, 0); stroke-width: 2.23445; stroke-linecap: butt; stroke-linejoin: round; stroke-miterlimit: 4; stroke-dasharray: none; stroke-opacity: 1;" y="299.15997" x="345.22662" height="72.51059" width="90.601135"/>
  <rect id="rect7380" style="fill: none; fill-opacity: 1; fill-rule: nonzero; stroke: rgb(0, 0, 0); stroke-width: 2.23445; stroke-linecap: butt; stroke-linejoin: round; stroke-miterlimit: 4; stroke-dasharray: none; stroke-opacity: 1;" y="177.62259" x="527.53265" height="72.51059" width="90.601135"/>
  <rect id="rect7382" style="fill: none; fill-opacity: 1; fill-rule: nonzero; stroke: rgb(0, 0, 0); stroke-width: 2.23445; stroke-linecap: butt; stroke-linejoin: round; stroke-miterlimit: 4; stroke-dasharray: none; stroke-opacity: 1;" y="14.014596" x="527.53265" height="72.51059" width="90.601135"/>
</svg>